Coordinates
version=1
nRows=10
nColumns=40
inDegrees=yes

Units are S.I. units (second, meters, Newtons, ...)
Angles are in degrees.

endheader
time	pelvis_tilt	pelvis_list	pelvis_rotation	pelvis_tx	pelvis_ty	pelvis_tz	hip_flexion_r	hip_adduction_r	hip_rotation_r	knee_angle_r	knee_angle_r_beta	ankle_angle_r	subtalar_angle_r	mtp_angle_r	hip_flexion_l	hip_adduction_l	hip_rotation_l	knee_angle_l	knee_angle_l_beta	ankle_angle_l	subtalar_angle_l	mtp_angle_l	lumbar_extension	lumbar_bending	lumbar_rotation	arm_flex_r	arm_add_r	arm_rot_r	elbow_flex_r	pro_sup_r	wrist_flex_r	wrist_dev_r	arm_flex_l	arm_add_l	arm_rot_l	elbow_flex_l	pro_sup_l	wrist_flex_l	wrist_dev_l
     57.18000000	     -2.90492053	     -5.77315620	      1.96601779	      1.00998580	      0.93399800	      0.46308696	      8.56999515	      5.52918012	    -20.28773197	     10.96589513	     10.96589513	      7.82248964	      1.95890859	     -4.74022733	     31.05728109	    -13.60937511	      0.78054776	     63.66090211	     63.66090211	      7.69673361	    -17.37283822	      9.62446956	     -8.67815917	      7.35550637	      3.89305597	     21.94767366	    -14.75398055	     -5.13458271	     48.90712280	     45.14569773	      0.00000000	      0.00000000	      6.92104103	     -5.90028171	     -1.08936887	     23.63679235	     45.06855713	      0.00000000	      0.00000000
     57.19257143	     -3.04409972	     -5.77594141	      2.09775082	      1.00852162	      0.93412336	      0.46375442	      7.86271205	      5.73243453	    -20.44715942	     10.15853351	     10.15853351	      7.75433705	      2.36462752	     -5.33659127	     32.02557592	    -13.65355601	      0.40271710	     61.04661327	     61.04661327	      7.77242832	    -17.64190815	      9.37993651	     -8.62572755	      7.31081472	      4.12877978	     23.30380363	    -15.11945703	     -5.07764325	     52.12983982	     45.05961933	      0.00000000	      0.00000000	      5.62608034	     -5.95072431	     -0.62876133	     22.79646777	     45.01538421	      0.00000000	      0.00000000
     57.20514286	     -3.26217290	     -5.73220671	      2.16596147	      1.00697154	      0.93403024	      0.46437040	      7.39879389	      5.83750584	    -20.37857113	      9.66499849	      9.66499849	      7.97857560	      2.50802363	     -5.38088875	     32.88067790	    -13.62234667	     -0.07220773	     58.18004283	     58.18004283	      7.98182468	    -17.73711030	      9.68744352	     -8.48523697	      7.21805265	      4.37965558	     25.31048962	    -15.42001245	     -5.25292786	     53.48560600	     45.03247219	      0.00000000	      0.00000000	      4.26617422	     -5.94492551	     -0.55985652	     22.21754377	     44.98381607	      0.00000000	      0.00000000
     57.21771429	     -3.25434978	     -5.77842142	      2.35291279	      1.00577762	      0.93416657	      0.46482018	      6.42435539	      6.12071784	    -20.60610601	      8.65376810	      8.65376810	      7.92212727	      3.07417760	     -5.80931274	     33.28706124	    -13.55480445	     -0.36670035	     54.98718319	     54.98718319	      7.98475678	    -17.79334669	      9.73575906	     -8.61321182	      7.27381147	      4.28250305	     26.42068712	    -15.68931510	     -4.86960280	     58.00115348	     44.89439883	      0.00000000	      0.00000000	      2.62040598	     -6.18007972	      0.12717696	     22.15734629	     44.86086804	      0.00000000	      0.00000000
     57.23028571	     -3.37017914	     -5.75281182	      2.47693105	      1.00443149	      0.93397749	      0.46511698	      5.79929125	      6.25470937	    -20.59100906	      8.05165981	      8.05165981	      8.11303196	      3.25086170	     -5.87774201	     33.66900714	    -13.34103645	     -0.68631188	     51.62536045	     51.62536045	      8.10217602	    -17.72331238	     10.21259840	     -8.56018153	      7.23837888	      4.19279671	     28.36071042	    -15.66289209	     -4.99886235	     59.83374680	     44.85329833	      0.00000000	      0.00000000	      1.18876482	     -6.27254208	      0.34465996	     21.59357757	     44.80353589	      0.00000000	      0.00000000
     57.24285714	     -3.48874913	     -5.79281815	      2.61902576	      1.00311580	      0.93357765	      0.46528134	      5.16669697	      6.44829144	    -20.67561920	      7.41290012	      7.41290012	      8.27464501	      3.55245419	     -6.04985552	     33.96323047	    -13.12497977	     -0.90922246	     48.15492652	     48.15492652	      8.21044270	    -17.47617784	     10.63070069	     -8.52600295	      7.28609057	      4.12398179	     30.08606280	    -15.72064727	     -5.01633417	     62.25425640	     44.78972301	      0.00000000	      0.00000000	     -0.29374621	     -6.35118011	      0.61073396	     21.37381273	     44.73166122	      0.00000000	      0.00000000
     57.25542857	     -3.62240244	     -5.76054079	      2.73174130	      1.00179266	      0.93304474	      0.46524094	      4.63597033	      6.51988089	    -20.68840955	      6.94858804	      6.94858804	      8.50577767	      3.75475490	     -6.24337735	     34.11463524	    -12.78174281	     -1.15256510	     44.53564583	     44.53564583	      8.35408321	    -16.99767068	     11.00859238	     -8.47247835	      7.25516066	      4.17601304	     31.70369853	    -15.84628186	     -5.04115748	     64.38319651	     44.73345281	      0.00000000	      0.00000000	     -1.66175455	     -6.43363766	      0.78732260	     21.24609443	     44.67392690	      0.00000000	      0.00000000
     57.26800000	     -3.74732791	     -5.87147888	      2.93521739	      1.00049340	      0.93226362	      0.46494224	      4.06703826	      6.74292082	    -20.87795687	      6.39685736	      6.39685736	      8.67308891	      4.09054580	     -6.59614544	     34.26955082	    -12.47589503	     -1.15263440	     40.94712974	     40.94712974	      8.43748936	    -16.30412824	     11.06817727	     -8.47732472	      7.43764324	      4.07941967	     33.07387437	    -16.04278683	     -4.93026999	     67.69957121	     44.63909738	      0.00000000	      0.00000000	     -3.22270527	     -6.47719061	      1.12600725	     21.63712421	     44.57750114	      0.00000000	      0.00000000
     57.28057143	     -3.99861125	     -5.86954206	      3.06581895	      0.99913511	      0.93130236	      0.46451081	      3.76637104	      6.78369883	    -20.88450063	      6.12423077	      6.12423077	      8.97421324	      4.13999444	     -6.80556541	     34.42519810	    -12.07139969	     -1.33653794	     37.32392881	     37.32392881	      8.67288383	    -15.18206345	     11.29964997	     -8.26975302	      7.43186066	      4.27575934	     34.61362318	    -16.35557364	     -5.03225636	     69.36908048	     44.60006093	      0.00000000	      0.00000000	     -4.37597554	     -6.48516764	      1.25150067	     21.60423872	     44.53170093	      0.00000000	      0.00000000
     57.29314286	     -4.08598674	     -5.99429800	      3.31037778	      0.99795450	      0.93034330	      0.46385266	      3.19861009	      6.97848471	    -21.15548912	      5.66779526	      5.66779526	      9.13117481	      4.51601490	     -7.47834994	     34.39678361	    -11.72725102	     -1.35641840	     33.76661045	     33.76661045	      8.49108355	    -13.98647444	     10.54339635	     -8.36757441	      7.63069878	      4.55705489	     35.04887277	    -17.08660545	     -4.88832680	     74.30200115	     44.47583904	      0.00000000	      0.00000000	     -6.02511320	     -6.75679645	      2.14083690	     23.20623842	     44.33559812	      0.00000000	      0.00000000
